<?xml version="1.0" encoding="utf-8"?>
<svg version="1.1" xmlns="http://www.w3.org/2000/svg" xmlns:xlink="http://www.w3.org/1999/xlink" x="0px" y="0px" viewBox="0 0 106.1 106.1" style="enable-background:new 0 0 106.1 106.1;" xml:space="preserve"><path d="M90.5,15.5c-20.7-20.7-54.3-20.7-75,0c-20.7,20.7-20.7,54.3,0,75c20.7,20.7,54.3,20.7,75,0
		C111.2,69.9,111.2,36.2,90.5,15.5z M84.8,84.8c-17.5,17.5-46,17.5-63.5,0c-17.5-17.5-17.5-46,0-63.5c17.5-17.5,46-17.5,63.5,0
		C102.3,38.8,102.3,67.3,84.8,84.8z M33.2,38.7c0-3.4,2.8-6.2,6.2-6.2c3.4,0,6.2,2.8,6.2,6.2c0,3.4-2.8,6.2-6.2,6.2
		C36,44.9,33.2,42.1,33.2,38.7z M61.4,38.7c0-3.4,2.8-6.2,6.2-6.2c3.4,0,6.2,2.8,6.2,6.2c0,3.4-2.8,6.2-6.2,6.2S61.4,42.1,61.4,38.7
		z M76,64.1C72.2,73,63.2,78.7,53.1,78.7C42.8,78.7,33.7,72.9,30,64c-0.6-1.5,0.1-3.3,1.6-3.9c0.4-0.2,0.8-0.2,1.1-0.2
		c1.2,0,2.3,0.7,2.8,1.8c2.8,6.7,9.7,11,17.5,11c7.7,0,14.5-4.3,17.4-11c0.7-1.5,2.4-2.2,3.9-1.6S76.7,62.5,76,64.1z"/></svg>
